<svg width="40" height="40" viewBox="0 0 40 40" fill="none" xmlns="http://www.w3.org/2000/svg">
<circle cx="20" cy="20" r="19.5" stroke="#DCDFE7" stroke-linecap="round"/>
<path d="M16.775 25.5248C16.625 25.3414 16.5459 25.1331 16.5375 24.8998C16.5292 24.6664 16.6084 24.4664 16.775 24.2998L21.1 19.9748L16.75 15.6248C16.6 15.4748 16.5292 15.2706 16.5375 15.0123C16.5459 14.7539 16.625 14.5498 16.775 14.3998C16.9584 14.2164 17.1625 14.1289 17.3875 14.1373C17.6125 14.1456 17.8084 14.2331 17.975 14.3998L22.95 19.3748C23.0334 19.4748 23.0959 19.5706 23.1375 19.6623C23.1792 19.7539 23.2 19.8581 23.2 19.9748C23.2 20.0914 23.1792 20.1956 23.1375 20.2873C23.0959 20.3789 23.0334 20.4748 22.95 20.5748L18 25.5248C17.8334 25.6914 17.6334 25.7706 17.4 25.7623C17.1667 25.7539 16.9584 25.6748 16.775 25.5248Z" fill="#202020"/>
</svg>
