<svg width="40" height="40" viewBox="0 0 40 40" fill="none" xmlns="http://www.w3.org/2000/svg">
<circle cx="20" cy="20" r="19.5" stroke="#DCDFE7" stroke-linecap="round"/>
<path d="M23.225 25.5248C23.375 25.3414 23.4542 25.1331 23.4625 24.8998C23.4708 24.6664 23.3917 24.4664 23.225 24.2998L18.9 19.9748L23.25 15.6248C23.4 15.4748 23.4708 15.2706 23.4625 15.0123C23.4542 14.7539 23.375 14.5498 23.225 14.3998C23.0417 14.2164 22.8375 14.1289 22.6125 14.1373C22.3875 14.1456 22.1917 14.2331 22.025 14.3998L17.05 19.3748C16.9667 19.4748 16.9042 19.5706 16.8625 19.6623C16.8208 19.7539 16.8 19.8581 16.8 19.9748C16.8 20.0914 16.8208 20.1956 16.8625 20.2873C16.9042 20.3789 16.9667 20.4748 17.05 20.5748L22 25.5248C22.1667 25.6914 22.3667 25.7706 22.6 25.7623C22.8333 25.7539 23.0417 25.6748 23.225 25.5248Z" fill="#202020"/>
</svg>
