<svg width="24" height="24" viewBox="0 0 24 24" fill="none" xmlns="http://www.w3.org/2000/svg">
<path d="M19.9 20.9756L13.325 14.4006C12.825 14.8339 12.2417 15.1714 11.575 15.4131C10.9083 15.6548 10.2 15.7756 9.45 15.7756C7.65 15.7756 6.125 15.1506 4.875 13.9006C3.625 12.6506 3 11.1423 3 9.37559C3 7.60892 3.625 6.10059 4.875 4.85059C6.125 3.60059 7.64167 2.97559 9.425 2.97559C11.1917 2.97559 12.6958 3.60059 13.9375 4.85059C15.1792 6.10059 15.8 7.60892 15.8 9.37559C15.8 10.0923 15.6833 10.7839 15.45 11.4506C15.2167 12.1173 14.8667 12.7423 14.4 13.3256L21 19.8756L19.9 20.9756ZM9.425 14.2756C10.775 14.2756 11.925 13.7964 12.875 12.8381C13.825 11.8798 14.3 10.7256 14.3 9.37559C14.3 8.02559 13.825 6.87142 12.875 5.91309C11.925 4.95475 10.775 4.47559 9.425 4.47559C8.05833 4.47559 6.89583 4.95475 5.9375 5.91309C4.97917 6.87142 4.5 8.02559 4.5 9.37559C4.5 10.7256 4.97917 11.8798 5.9375 12.8381C6.89583 13.7964 8.05833 14.2756 9.425 14.2756V14.2756Z" fill="#A8B0C2"/>
</svg>
