<svg width="24" height="24" viewBox="0 0 24 24" fill="none" xmlns="http://www.w3.org/2000/svg">
<path d="M17.7498 4.09L15.2198 6.03L16.1298 9.09L13.4998 7.28L10.8698 9.09L11.7798 6.03L9.24982 4.09L12.4398 4L13.4998 1L14.5598 4L17.7498 4.09ZM21.2498 11L19.6098 12.25L20.1998 14.23L18.4998 13.06L16.7998 14.23L17.3898 12.25L15.7498 11L17.8098 10.95L18.4998 9L19.1898 10.95L21.2498 11ZM18.9698 15.95C19.7998 15.87 20.6898 17.05 20.1598 17.8C19.8398 18.25 19.4998 18.67 19.0798 19.07C15.1698 23 8.83982 23 4.93982 19.07C1.02982 15.17 1.02982 8.83 4.93982 4.93C5.33982 4.53 5.75982 4.17 6.20982 3.85C6.95982 3.32 8.13982 4.21 8.05982 5.04C7.78982 7.9 8.74982 10.87 10.9498 13.06C13.1398 15.26 16.0998 16.22 18.9698 15.95Z" fill="#FFD600"/>
</svg>
